<svg xmlns="http://www.w3.org/2000/svg" viewBox="0 0 200 240" role="img" aria-label="Abstract club crest illustration">
  <defs>
    <linearGradient id="g" x1="0" y1="0" x2="1" y2="1">
      <stop offset="0" stop-color="#F5971D"/>
      <stop offset="1" stop-color="#111111"/>
    </linearGradient>
  </defs>
  <path d="M100 8 L186 30 V128 C186 190 148 220 100 236 C52 220 14 190 14 128 V30 Z" fill="url(#g)" stroke="#FFFFFF" stroke-width="5"/>
  <path d="M100 24 L170 43 V125 C170 178 139 204 100 217 C61 204 30 178 30 125 V43 Z" fill="none" stroke="#FFFFFF" stroke-width="2.5" opacity=".55"/>
  <rect x="40" y="45" width="12" height="170" fill="#111111" opacity=".15"/><rect x="64" y="45" width="12" height="170" fill="#111111" opacity=".15"/><rect x="88" y="45" width="12" height="170" fill="#111111" opacity=".15"/><rect x="112" y="45" width="12" height="170" fill="#111111" opacity=".15"/><rect x="136" y="45" width="12" height="170" fill="#111111" opacity=".15"/>
  <circle cx="100" cy="132" r="34" fill="#FFFFFF" stroke="#FFFFFF" stroke-width="3"/>
  <path d="M100 112 L116 122 L111 140 L89 140 L84 122 Z" fill="#F5971D"/>
  <path d="M100 112 L84 122 L70 116 M100 112 L116 122 L130 116 M84 122 L89 140 L76 150 M111 140 L116 122 L130 116 M89 140 L100 154 L111 140 M76 150 L100 154 L124 150" fill="none" stroke="#FFFFFF" stroke-width="2" opacity=".7"/>
  <path d="M76 150 L70 116 M124 150 L130 116" stroke="#FFFFFF" stroke-width="2" opacity=".4" fill="none"/>
</svg>